<?xml version="1.0" encoding="UTF-8"?>
<svg width="370px" height="314px" viewBox="0 0 370 314" version="1.1" xmlns="http://www.w3.org/2000/svg" xmlns:xlink="http://www.w3.org/1999/xlink">
    <g stroke="none" stroke-width="1" fill="none" fill-rule="evenodd">
        <rect id="矩形" fill="#F5F5F5" x="0" y="0" width="370" height="314"></rect>
        <rect id="矩形" fill="#4D4D4D" x="0" y="47" width="370" height="220"></rect>
        <rect id="矩形-copy-9" fill="#4D4D4D" x="75" y="0" width="220" height="314"></rect>
        <rect id="矩形" fill="#F5F5F5" x="0" y="50" width="80" height="3"></rect>
        <path d="M0,85 L20,85 L20,87 L0,87 L0,85 Z M30,85 L50,85 L50,87 L30,87 L30,85 Z M60,85 L80,85 L80,87 L60,87 L60,85 Z" id="合并形状" fill="#F5F5F5"></path>
        <path d="M289,85 L309,85 L309,87 L289,87 L289,85 Z M319,85 L339,85 L339,87 L319,87 L319,85 Z M349,85 L369,85 L369,87 L349,87 L349,85 Z" id="合并形状-copy" fill="#F5F5F5"></path>
        <path d="M0,193 L20,193 L20,195 L0,195 L0,193 Z M30,193 L50,193 L50,195 L30,195 L30,193 Z M60,193 L80,193 L80,195 L60,195 L60,193 Z" id="合并形状-copy-4" fill="#F5F5F5"></path>
        <path d="M289,193 L309,193 L309,195 L289,195 L289,193 Z M319,193 L339,193 L339,195 L319,195 L319,193 Z M349,193 L369,193 L369,195 L349,195 L349,193 Z" id="合并形状-copy-6" fill="#F5F5F5"></path>
        <path d="M0,119 L20,119 L20,121 L0,121 L0,119 Z M30,119 L50,119 L50,121 L30,121 L30,119 Z M60,119 L80,119 L80,121 L60,121 L60,119 Z" id="合并形状" fill="#F5F5F5"></path>
        <path d="M289,119 L309,119 L309,121 L289,121 L289,119 Z M319,119 L339,119 L339,121 L319,121 L319,119 Z M349,119 L369,119 L369,121 L349,121 L349,119 Z" id="合并形状-copy-7" fill="#F5F5F5"></path>
        <path d="M0,226 L20,226 L20,228 L0,228 L0,226 Z M30,226 L50,226 L50,228 L30,228 L30,226 Z M60,226 L80,226 L80,228 L60,228 L60,226 Z" id="合并形状-copy-5" fill="#F5F5F5"></path>
        <path d="M289,226 L309,226 L309,228 L289,228 L289,226 Z M319,226 L339,226 L339,228 L319,228 L319,226 Z M349,226 L369,226 L369,228 L349,228 L349,226 Z" id="合并形状-copy-8" fill="#F5F5F5"></path>
        <path d="M0,153 L80,153 L80,156 L0,156 L0,153 Z M0,158 L80,158 L80,161 L0,161 L0,158 Z" id="合并形状" fill="#F8E71C"></path>
        <path d="M289,153 L369,153 L369,156 L289,156 L289,153 Z M289,158 L369,158 L369,161 L289,161 L289,158 Z" id="合并形状-copy-9" fill="#F8E71C"></path>
        <path d="M158,283 L212,283 L212,286 L158,286 L158,283 Z M158,288 L212,288 L212,291 L158,291 L158,288 Z" id="合并形状-copy-2" fill="#F8E71C" transform="translate(185.000000, 287.000000) rotate(90.000000) translate(-185.000000, -287.000000) "></path>
        <path d="M159,22 L212,22 L212,25 L159,25 L159,22 Z M159,27 L212,27 L212,30 L159,30 L159,27 Z" id="合并形状-copy-3" fill="#F8E71C" transform="translate(185.500000, 26.000000) rotate(90.000000) translate(-185.500000, -26.000000) "></path>
        <rect id="矩形-copy" fill="#F5F5F5" x="290" y="50" width="79" height="3"></rect>
        <rect id="矩形-copy-12" fill="#F5F5F5" x="0" y="261" width="80" height="3"></rect>
        <rect id="矩形-copy-15" fill="#F5F5F5" x="289" y="261" width="81" height="3"></rect>
        <rect id="矩形-copy-10" fill="#F5F5F5" x="78" y="0" width="3" height="53"></rect>
        <path d="M113,0 L115,0 L115,20 L113,20 L113,0 Z M113,33 L115,33 L115,53 L113,53 L113,33 Z" id="合并形状" fill="#F5F5F5"></path>
        <path d="M221,0 L223,0 L223,20 L221,20 L221,0 Z M221,33 L223,33 L223,53 L221,53 L221,33 Z" id="合并形状-copy-11" fill="#F5F5F5"></path>
        <path d="M147,0 L149,0 L149,20 L147,20 L147,0 Z M147,33 L149,33 L149,53 L147,53 L147,33 Z" id="合并形状-copy-10" fill="#F5F5F5"></path>
        <path d="M255,0 L257,0 L257,20 L255,20 L255,0 Z M255,33 L257,33 L257,53 L255,53 L255,33 Z" id="合并形状-copy-12" fill="#F5F5F5"></path>
        <path d="M113,260 L115,260 L115,280 L113,280 L113,260 Z M113,293 L115,293 L115,313 L113,313 L113,293 Z" id="合并形状-copy-16" fill="#F5F5F5"></path>
        <path d="M221,260 L223,260 L223,280 L221,280 L221,260 Z M221,293 L223,293 L223,313 L221,313 L221,293 Z" id="合并形状-copy-15" fill="#F5F5F5"></path>
        <path d="M147,260 L149,260 L149,280 L147,280 L147,260 Z M147,293 L149,293 L149,313 L147,313 L147,293 Z" id="合并形状-copy-14" fill="#F5F5F5"></path>
        <path d="M255,260 L257,260 L257,280 L255,280 L255,260 Z M255,293 L257,293 L257,313 L255,313 L255,293 Z" id="合并形状-copy-13" fill="#F5F5F5"></path>
        <rect id="矩形-copy-13" fill="#F5F5F5" x="289" y="0" width="3" height="53"></rect>
        <rect id="矩形-copy-11" fill="#F5F5F5" x="78" y="261" width="3" height="53"></rect>
        <rect id="矩形-copy-14" fill="#F5F5F5" x="289" y="261" width="3" height="53"></rect>
        <path d="M129,37 L127,37 L130.5,24 L134,37 L132,37 L132,53 L129,53 L129,37 Z" id="合并形状-copy-25" fill="#FFFFFF" transform="translate(130.500000, 38.500000) scale(1, -1) translate(-130.500000, -38.500000) "></path>
        <path d="M238,273 L236,273 L239.5,260 L243,273 L241,273 L241,289 L238,289 L238,273 Z" id="合并形状-copy-20" fill="#FFFFFF"></path>
        <path d="M317,102 L315,102 L318.5,89 L322,102 L320,102 L320,118 L317,118 L317,102 Z" id="合并形状-copy-31" fill="#FFFFFF" transform="translate(318.500000, 103.500000) scale(1, -1) rotate(-90.000000) translate(-318.500000, -103.500000) "></path>
        <path d="M50,208 L48,208 L51.5,195 L55,208 L53,208 L53,224 L50,224 L50,208 Z" id="合并形状-copy-34" fill="#FFFFFF" transform="translate(51.500000, 209.500000) scale(-1, -1) rotate(-90.000000) translate(-51.500000, -209.500000) "></path>
        <path d="M94,29 L100,35 L100,53 L97,53 L97,37 L94,34 L94,38 L90,31 L94,24 L94,29 Z" id="合并形状-copy-27" fill="#FFFFFF" transform="translate(95.000000, 38.500000) scale(1, -1) translate(-95.000000, -38.500000) "></path>
        <path d="M203,265 L209,271 L209,289 L206,289 L206,273 L203,270 L203,274 L199,267 L203,260 L203,265 Z" id="合并形状-copy-23" fill="#FFFFFF"></path>
        <path d="M318,59 L324,65 L324,83 L321,83 L321,67 L318,64 L318,68 L314,61 L318,54 L318,59 Z" id="合并形状-copy-32" fill="#FFFFFF" transform="translate(319.000000, 68.500000) scale(1, -1) rotate(-90.000000) translate(-319.000000, -68.500000) "></path>
        <path d="M51,164 L57,170 L57,188 L54,188 L54,172 L51,169 L51,173 L47,166 L51,159 L51,164 Z" id="合并形状-copy-35" fill="#FFFFFF" transform="translate(52.000000, 173.500000) scale(-1, -1) rotate(-90.000000) translate(-52.000000, -173.500000) "></path>
        <path d="M165,29 L171,35 L171,53 L168,53 L168,37 L165,34 L165,38 L161,31 L165,24 L165,29 Z" id="合并形状-copy-29" fill="#FFFFFF" transform="translate(166.000000, 38.500000) scale(-1, -1) translate(-166.000000, -38.500000) "></path>
        <path d="M274,265 L280,271 L280,289 L277,289 L277,273 L274,270 L274,274 L270,267 L274,260 L274,265 Z" id="合并形状-copy-24" fill="#FFFFFF" transform="translate(275.000000, 274.500000) scale(-1, 1) translate(-275.000000, -274.500000) "></path>
        <path d="M318,130 L324,136 L324,154 L321,154 L321,138 L318,135 L318,139 L314,132 L318,125 L318,130 Z" id="合并形状-copy-33" fill="#FFFFFF" transform="translate(319.000000, 139.500000) scale(-1, -1) rotate(-270.000000) translate(-319.000000, -139.500000) "></path>
        <path d="M51,235 L57,241 L57,259 L54,259 L54,243 L51,240 L51,244 L47,237 L51,230 L51,235 Z" id="合并形状-copy-36" fill="#FFFFFF" transform="translate(52.000000, 244.500000) scale(1, -1) rotate(-270.000000) translate(-52.000000, -244.500000) "></path>
        <path d="M131,120 L151,120 L151,123.733333 L131,123.733333 L131,120 Z M131,127.466667 L151,127.466667 L151,131.2 L131,131.2 L131,127.466667 Z M131,134.933333 L151,134.933333 L151,138.666667 L131,138.666667 L131,134.933333 Z M131,141.466667 L151,141.466667 L151,145.2 L131,145.2 L131,141.466667 Z M131,148.933333 L151,148.933333 L151,152.666667 L131,152.666667 L131,148.933333 Z M131,157.333333 L151,157.333333 L151,161.066667 L131,161.066667 L131,157.333333 Z M131,164.8 L151,164.8 L151,168.533333 L131,168.533333 L131,164.8 Z M131,171.333333 L151,171.333333 L151,175.066667 L131,175.066667 L131,171.333333 Z M131,178.8 L151,178.8 L151,182.533333 L131,182.533333 L131,178.8 Z M131,186.266667 L151,186.266667 L151,190 L131,190 L131,186.266667 Z" id="直线" fill="#F5F5F5" fill-rule="nonzero"></path>
        <path d="M223,120 L243,120 L243,123.733333 L223,123.733333 L223,120 Z M223,127.466667 L243,127.466667 L243,131.2 L223,131.2 L223,127.466667 Z M223,134.933333 L243,134.933333 L243,138.666667 L223,138.666667 L223,134.933333 Z M223,141.466667 L243,141.466667 L243,145.2 L223,145.2 L223,141.466667 Z M223,148.933333 L243,148.933333 L243,152.666667 L223,152.666667 L223,148.933333 Z M223,157.333333 L243,157.333333 L243,161.066667 L223,161.066667 L223,157.333333 Z M223,164.8 L243,164.8 L243,168.533333 L223,168.533333 L223,164.8 Z M223,171.333333 L243,171.333333 L243,175.066667 L223,175.066667 L223,171.333333 Z M223,178.8 L243,178.8 L243,182.533333 L223,182.533333 L223,178.8 Z M223,186.266667 L243,186.266667 L243,190 L223,190 L223,186.266667 Z" id="直线-copy" fill="#F5F5F5" fill-rule="nonzero"></path>
        <path d="M176,75 L196,75 L196,78.7333333 L176,78.7333333 L176,75 Z M176,82.4666667 L196,82.4666667 L196,86.2 L176,86.2 L176,82.4666667 Z M176,89.9333333 L196,89.9333333 L196,93.6666667 L176,93.6666667 L176,89.9333333 Z M176,96.4666667 L196,96.4666667 L196,100.2 L176,100.2 L176,96.4666667 Z M176,103.933333 L196,103.933333 L196,107.666667 L176,107.666667 L176,103.933333 Z M176,112.333333 L196,112.333333 L196,116.066667 L176,116.066667 L176,112.333333 Z M176,119.8 L196,119.8 L196,123.533333 L176,123.533333 L176,119.8 Z M176,126.333333 L196,126.333333 L196,130.066667 L176,130.066667 L176,126.333333 Z M176,133.8 L196,133.8 L196,137.533333 L176,137.533333 L176,133.8 Z M176,141.266667 L196,141.266667 L196,145 L176,145 L176,141.266667 Z" id="直线-copy-3" fill="#F5F5F5" fill-rule="nonzero" transform="translate(186.000000, 110.000000) rotate(-270.000000) translate(-186.000000, -110.000000) "></path>
        <path d="M177,168 L197,168 L197,171.733333 L177,171.733333 L177,168 Z M177,175.466667 L197,175.466667 L197,179.2 L177,179.2 L177,175.466667 Z M177,182.933333 L197,182.933333 L197,186.666667 L177,186.666667 L177,182.933333 Z M177,189.466667 L197,189.466667 L197,193.2 L177,193.2 L177,189.466667 Z M177,196.933333 L197,196.933333 L197,200.666667 L177,200.666667 L177,196.933333 Z M177,205.333333 L197,205.333333 L197,209.066667 L177,209.066667 L177,205.333333 Z M177,212.8 L197,212.8 L197,216.533333 L177,216.533333 L177,212.8 Z M177,219.333333 L197,219.333333 L197,223.066667 L177,223.066667 L177,219.333333 Z M177,226.8 L197,226.8 L197,230.533333 L177,230.533333 L177,226.8 Z M177,234.266667 L197,234.266667 L197,238 L177,238 L177,234.266667 Z" id="直线-copy-2" fill="#F5F5F5" fill-rule="nonzero" transform="translate(187.000000, 203.000000) rotate(-270.000000) translate(-187.000000, -203.000000) "></path>
    </g>
</svg>