<?xml version="1.0" encoding="UTF-8"?>
<svg width="15px" height="30px" viewBox="0 0 39 137" version="1.1" xmlns="http://www.w3.org/2000/svg" xmlns:xlink="http://www.w3.org/1999/xlink">
    <!-- Generator: Sketch 53.1 (72631) - https://sketchapp.com -->
    <title>人行道-2</title>
    <desc>Created with Sketch.</desc>
    <g id="Page-2" stroke="none" stroke-width="1" fill="none" fill-rule="evenodd">
        <g id="箭头" transform="translate(-97.000000, -33.000000)" fill="#FFBD4F" fill-rule="nonzero">
            <path d="M97,33 L136,33 L136,40 L97,40 L97,33 Z M97,48 L136,48 L136,55 L97,55 L97,48 Z M97,62 L136,62 L136,69 L97,69 L97,62 Z M97,75 L136,75 L136,82 L97,82 L97,75 Z M97,90 L136,90 L136,97 L97,97 L97,90 Z M97,106 L136,106 L136,113 L97,113 L97,106 Z M97,121 L136,121 L136,128 L97,128 L97,121 Z M97,134 L136,134 L136,141 L97,141 L97,134 Z M97,148 L136,148 L136,155 L97,155 L97,148 Z M97,163 L136,163 L136,170 L97,170 L97,163 Z" id="人行道-2"></path>
        </g>
    </g>
</svg>