<?xml version="1.0" encoding="UTF-8"?>
<svg width="15px" height="25px" viewBox="0 0 39 137" version="1.1" xmlns="http://www.w3.org/2000/svg" xmlns:xlink="http://www.w3.org/1999/xlink">
    <!-- Generator: Sketch 53.1 (72631) - https://sketchapp.com -->
    <title>人行道-1</title>
    <desc>Created with Sketch.</desc>
    <g id="Page-2" stroke="none" stroke-width="1" fill="none" fill-rule="evenodd">
        <g id="箭头" transform="translate(-34.000000, -33.000000)" fill="#00D142" fill-rule="nonzero">
            <path d="M34,33 L73,33 L73,40 L34,40 L34,33 Z M34,48 L73,48 L73,55 L34,55 L34,48 Z M34,62 L73,62 L73,69 L34,69 L34,62 Z M34,75 L73,75 L73,82 L34,82 L34,75 Z M34,90 L73,90 L73,97 L34,97 L34,90 Z M34,106 L73,106 L73,113 L34,113 L34,106 Z M34,121 L73,121 L73,128 L34,128 L34,121 Z M34,134 L73,134 L73,141 L34,141 L34,134 Z M34,148 L73,148 L73,155 L34,155 L34,148 Z M34,163 L73,163 L73,170 L34,170 L34,163 Z" id="人行道-1"></path>
        </g>
    </g>
</svg>