<?xml version="1.0" encoding="UTF-8"?>
<svg width="15px" height="30px" viewBox="0 0 39 137" version="1.1" xmlns="http://www.w3.org/2000/svg" xmlns:xlink="http://www.w3.org/1999/xlink">
    <!-- Generator: Sketch 53.1 (72631) - https://sketchapp.com -->
    <title>人行道-3</title>
    <desc>Created with Sketch.</desc>
    <g id="Page-2" stroke="none" stroke-width="1" fill="none" fill-rule="evenodd">
        <g id="箭头" transform="translate(-161.000000, -33.000000)" fill="#D0021B" fill-rule="nonzero">
            <path d="M161,33 L200,33 L200,40 L161,40 L161,33 Z M161,48 L200,48 L200,55 L161,55 L161,48 Z M161,62 L200,62 L200,69 L161,69 L161,62 Z M161,75 L200,75 L200,82 L161,82 L161,75 Z M161,90 L200,90 L200,97 L161,97 L161,90 Z M161,106 L200,106 L200,113 L161,113 L161,106 Z M161,121 L200,121 L200,128 L161,128 L161,121 Z M161,134 L200,134 L200,141 L161,141 L161,134 Z M161,148 L200,148 L200,155 L161,155 L161,148 Z M161,163 L200,163 L200,170 L161,170 L161,163 Z" id="人行道-3"></path>
        </g>
    </g>
</svg>