<?xml version="1.0" encoding="UTF-8"?>
<svg width="604px" height="513px" viewBox="0 0 604 513" version="1.1" xmlns="http://www.w3.org/2000/svg" xmlns:xlink="http://www.w3.org/1999/xlink">
    <g stroke="none" stroke-width="1" fill="none" fill-rule="evenodd">
        <rect id="矩形" fill="#F5F5F5" x="0" y="0" width="604" height="513"></rect>
        <rect id="矩形" fill="#4D4D4D" x="0" y="77" width="604" height="359"></rect>
        <rect id="矩形-copy-9" fill="#4D4D4D" x="123" y="0" width="359" height="513"></rect>
        <rect id="矩形" fill="#F5F5F5" x="0" y="82" width="131" height="5"></rect>
        <path d="M0,139 L32.75,139 L32.75,142 L0,142 L0,139 Z M49.125,139 L81.875,139 L81.875,142 L49.125,142 L49.125,139 Z M98.25,139 L131,139 L131,142 L98.25,142 L98.25,139 Z" id="合并形状" fill="#F5F5F5"></path>
        <path d="M472,139 L504.75,139 L504.75,142 L472,142 L472,139 Z M521.125,139 L553.875,139 L553.875,142 L521.125,142 L521.125,139 Z M570.25,139 L603,139 L603,142 L570.25,142 L570.25,139 Z" id="合并形状-copy" fill="#F5F5F5"></path>
        <path d="M0,315 L32.75,315 L32.75,318 L0,318 L0,315 Z M49.125,315 L81.875,315 L81.875,318 L49.125,318 L49.125,315 Z M98.25,315 L131,315 L131,318 L98.25,318 L98.25,315 Z" id="合并形状-copy-4" fill="#F5F5F5"></path>
        <path d="M472,315 L504.75,315 L504.75,318 L472,318 L472,315 Z M521.125,315 L553.875,315 L553.875,318 L521.125,318 L521.125,315 Z M570.25,315 L603,315 L603,318 L570.25,318 L570.25,315 Z" id="合并形状-copy-6" fill="#F5F5F5"></path>
        <path d="M0,195 L32.75,195 L32.75,198 L0,198 L0,195 Z M49.125,195 L81.875,195 L81.875,198 L49.125,198 L49.125,195 Z M98.25,195 L131,195 L131,198 L98.25,198 L98.25,195 Z" id="合并形状" fill="#F5F5F5"></path>
        <path d="M472,195 L504.75,195 L504.75,198 L472,198 L472,195 Z M521.125,195 L553.875,195 L553.875,198 L521.125,198 L521.125,195 Z M570.25,195 L603,195 L603,198 L570.25,198 L570.25,195 Z" id="合并形状-copy-7" fill="#F5F5F5"></path>
        <path d="M0,369 L32.75,369 L32.75,372 L0,372 L0,369 Z M49.125,369 L81.875,369 L81.875,372 L49.125,372 L49.125,369 Z M98.25,369 L131,369 L131,372 L98.25,372 L98.25,369 Z" id="合并形状-copy-5" fill="#F5F5F5"></path>
        <path d="M472,369 L504.75,369 L504.75,372 L472,372 L472,369 Z M521.125,369 L553.875,369 L553.875,372 L521.125,372 L521.125,369 Z M570.25,369 L603,369 L603,372 L570.25,372 L570.25,369 Z" id="合并形状-copy-8" fill="#F5F5F5"></path>
        <path d="M0,250 L131,250 L131,254.875 L0,254.875 L0,250 Z M0,258.125 L131,258.125 L131,263 L0,263 L0,258.125 Z" id="合并形状" fill="#F8E71C"></path>
        <path d="M472,250 L603,250 L603,254.875 L472,254.875 L472,250 Z M472,258.125 L603,258.125 L603,263 L472,263 L472,258.125 Z" id="合并形状-copy-9" fill="#F8E71C"></path>
        <path d="M258,462 L346,462 L346,466.875 L258,466.875 L258,462 Z M258,470.125 L346,470.125 L346,475 L258,475 L258,470.125 Z" id="合并形状-copy-2" fill="#F8E71C" transform="translate(302.000000, 468.500000) rotate(90.000000) translate(-302.000000, -468.500000) "></path>
        <path d="M259,37 L346,37 L346,41.875 L259,41.875 L259,37 Z M259,45.125 L346,45.125 L346,50 L259,50 L259,45.125 Z" id="合并形状-copy-3" fill="#F8E71C" transform="translate(302.500000, 43.500000) rotate(90.000000) translate(-302.500000, -43.500000) "></path>
        <rect id="矩形-copy" fill="#F5F5F5" x="473" y="82" width="129" height="5"></rect>
        <rect id="矩形-copy-12" fill="#F5F5F5" x="0" y="426" width="131" height="5"></rect>
        <rect id="矩形-copy-15" fill="#F5F5F5" x="472" y="426" width="132" height="5"></rect>
        <rect id="矩形-copy-10" fill="#F5F5F5" x="127" y="0" width="5" height="87"></rect>
        <path d="M185,0 L188,0 L188,32.8301887 L185,32.8301887 L185,0 Z M185,54.1698113 L188,54.1698113 L188,87 L185,87 L185,54.1698113 Z" id="合并形状" fill="#F5F5F5"></path>
        <path d="M361,0 L364,0 L364,32.8301887 L361,32.8301887 L361,0 Z M361,54.1698113 L364,54.1698113 L364,87 L361,87 L361,54.1698113 Z" id="合并形状-copy-11" fill="#F5F5F5"></path>
        <path d="M240,0 L243,0 L243,32.8301887 L240,32.8301887 L240,0 Z M240,54.1698113 L243,54.1698113 L243,87 L240,87 L240,54.1698113 Z" id="合并形状-copy-10" fill="#F5F5F5"></path>
        <path d="M416,0 L419,0 L419,32.8301887 L416,32.8301887 L416,0 Z M416,54.1698113 L419,54.1698113 L419,87 L416,87 L416,54.1698113 Z" id="合并形状-copy-12" fill="#F5F5F5"></path>
        <path d="M185,425 L188,425 L188,457.830189 L185,457.830189 L185,425 Z M185,479.169811 L188,479.169811 L188,512 L185,512 L185,479.169811 Z" id="合并形状-copy-16" fill="#F5F5F5"></path>
        <path d="M361,425 L364,425 L364,457.830189 L361,457.830189 L361,425 Z M361,479.169811 L364,479.169811 L364,512 L361,512 L361,479.169811 Z" id="合并形状-copy-15" fill="#F5F5F5"></path>
        <path d="M240,425 L243,425 L243,457.830189 L240,457.830189 L240,425 Z M240,479.169811 L243,479.169811 L243,512 L240,512 L240,479.169811 Z" id="合并形状-copy-14" fill="#F5F5F5"></path>
        <path d="M416,425 L419,425 L419,457.830189 L416,457.830189 L416,425 Z M416,479.169811 L419,479.169811 L419,512 L416,512 L416,479.169811 Z" id="合并形状-copy-13" fill="#F5F5F5"></path>
        <rect id="矩形-copy-13" fill="#F5F5F5" x="472" y="0" width="5" height="87"></rect>
        <rect id="矩形-copy-11" fill="#F5F5F5" x="127" y="426" width="5" height="87"></rect>
        <rect id="矩形-copy-14" fill="#F5F5F5" x="472" y="426" width="5" height="87"></rect>
    </g>
</svg>