<?xml version="1.0" encoding="UTF-8"?>
<svg width="212px" height="40px" viewBox="0 0 212 40" version="1.1" xmlns="http://www.w3.org/2000/svg" xmlns:xlink="http://www.w3.org/1999/xlink">
    <!-- Generator: Sketch 53.1 (72631) - https://sketchapp.com -->
    <title>logo</title>
    <desc>Created with Sketch.</desc>
    <g id="Page-2" stroke="none" stroke-width="1" fill="none" fill-rule="evenodd">
        <g id="头部" transform="translate(-30.000000, -10.000000)" fill="#FFFFFF">
            <g id="分组">
                <g id="logo" transform="translate(30.000000, 10.000000)">
                    <path d="M21.5005635,0 C9.62580594,0 0,9.47223955 0,21.1575518 L0,21.1575518 C0,29.3776946 4.767259,36.497678 11.727119,40 L11.727119,40 L19.014376,27.4418798 C18.2249043,26.8474388 17.6433664,26.0023567 17.3852807,25.0291814 L17.3852807,25.0291814 L13.1719479,25.0291814 C12.7329769,26.0084564 11.7395162,26.6921744 10.5820753,26.6921744 L10.5820753,26.6921744 C9.01947371,26.6921744 7.75214918,25.4456228 7.75214918,23.9073959 L7.75214918,23.9073959 C7.75214918,22.370278 9.01947371,21.1231718 10.5820753,21.1231718 L10.5820753,21.1231718 C11.7395162,21.1231718 12.7329769,21.8074444 13.1719479,22.7867193 L13.1719479,22.7867193 L17.3818997,22.7867193 C17.5436258,22.177861 17.8321408,21.620018 18.2187058,21.1414709 L18.2187058,21.1414709 L16.3732243,18.0323005 C16.0728757,18.0522631 15.764638,18.0278644 15.4575274,17.9474596 L15.4575274,17.9474596 C13.9467684,17.5537534 13.0462861,16.0288348 13.4469387,14.5421779 L13.4469387,14.5421779 C13.8475913,13.0555209 15.3961053,12.1694046 16.9068643,12.5636653 L16.9068643,12.5636653 C18.4176233,12.9579261 19.3181056,14.4822902 18.9180165,15.9689471 L18.9180165,15.9689471 C18.8137679,16.3543356 18.6317555,16.69869 18.3939561,16.9914743 L18.3939561,16.9914743 L20.0512266,19.7845706 C20.579795,19.571082 21.1573885,19.4518611 21.7637207,19.4518611 L21.7637207,19.4518611 C22.4399277,19.4518611 23.0795067,19.6021349 23.6559732,19.8638664 L23.6559732,19.8638664 L25.2518216,16.9826021 C25.0196572,16.6942538 24.8421529,16.3565537 24.7384678,15.9783739 L24.7384678,15.9783739 C24.3327436,14.4933805 25.2275908,12.9656893 26.7366593,12.5664379 L26.7366593,12.5664379 C28.2462913,12.1671865 29.7981863,13.0477577 30.204474,14.5327511 L30.204474,14.5327511 C30.6101981,16.0177445 29.7159145,17.5454356 28.2062824,17.944687 L28.2062824,17.944687 C27.8907192,18.0284189 27.5740289,18.0533721 27.2657913,18.030637 L27.2657913,18.030637 L25.4445405,21.3194704 C25.7623578,21.7564289 26.0012843,22.2527206 26.1432877,22.7867193 L26.1432877,22.7867193 L29.9244116,22.7867193 C30.3628191,21.8074444 31.3562798,21.1231718 32.5137207,21.1231718 L32.5137207,21.1231718 C34.0768858,21.1231718 35.3436468,22.370278 35.3436468,23.9073959 L35.3436468,23.9073959 C35.3436468,25.4456228 34.0768858,26.6921744 32.5137207,26.6921744 L32.5137207,26.6921744 C31.3562798,26.6921744 30.3628191,26.0084564 29.9244116,25.0291814 L29.9244116,25.0291814 L26.1415972,25.0291814 C25.8925277,25.9724128 25.3397285,26.7958689 24.5880117,27.3875373 L24.5880117,27.3875373 L31.9152776,39.666736 C38.524637,36.0573924 43,29.1231718 43,21.1575518 L43,21.1575518 C43,9.47223955 33.3741941,0 21.5005635,0 Z"></path>
                    <path d="M62.4688356,8.66773163 C62.0736518,9.24920128 61.6345587,9.74121406 61.1954656,10.1884984 L64.0495708,10.1884984 C64.1373895,9.69648562 64.2032534,9.20447284 64.2471627,8.66773163 L62.4688356,8.66773163 Z M63.3909312,12.313099 L59.4610478,12.313099 L59.4610478,10.1884984 L60.4270526,10.1884984 L59.3512745,8.82428115 C60.3611887,7.92971246 61.2393749,6.65495208 62.0077878,5 L64.0715255,5.46964856 C63.9178429,5.87220447 63.7641603,6.27476038 63.5885231,6.63258786 L69.4943255,6.63258786 L69.4943255,8.66773163 L66.398719,8.66773163 C66.3548097,9.20447284 66.3109004,9.69648562 66.2450364,10.1884984 L70.1090558,10.1884984 L70.1090558,12.313099 L65.7839886,12.313099 L65.7181247,12.514377 C67.3427692,13.3642173 68.7039579,14.1916933 69.8236453,15.0415335 L68.5283206,16.3610224 L76.9589084,16.3610224 L76.9589084,26 L74.6317149,26 L74.6317149,25.172524 L64.4886639,25.172524 L64.4886639,26 L62.1834251,26 L62.1834251,16.8977636 C61.6565134,17.2108626 61.107647,17.5239617 60.5368259,17.8146965 L59,15.913738 C61.2393749,14.9073482 62.7103368,13.6996805 63.3909312,12.313099 Z M64.4886639,23.115016 L74.6317149,23.115016 L74.6317149,21.8178914 L64.4886639,21.8178914 L64.4886639,23.115016 Z M64.4886639,19.8051118 L74.6317149,19.8051118 L74.6317149,18.4185304 L64.4886639,18.4185304 L64.4886639,19.8051118 Z M62.951838,16.3610224 L67.8257716,16.3610224 C67.035404,15.6453674 66.0913538,14.9520767 64.9716664,14.2364217 C64.4667093,14.9968051 63.786115,15.7124601 62.951838,16.3610224 Z M70.7018315,6.69968051 L78.5615983,6.69968051 L78.5615983,15.2651757 L70.7018315,15.2651757 L70.7018315,6.69968051 Z M76.3222234,13.2300319 L76.3222234,8.7571885 L72.9412064,8.7571885 L72.9412064,13.2300319 L76.3222234,13.2300319 Z M94.5286207,8.22044728 L94.5286207,25.0159744 L92.399019,25.0159744 L92.399019,23.7188498 L86.6908085,23.7188498 L86.6908085,25.0159744 L84.5392523,25.0159744 L84.5392523,8.22044728 L88.4032717,8.22044728 L88.4032717,5.15654952 L90.6426466,5.15654952 L90.6426466,8.22044728 L94.5286207,8.22044728 Z M86.6908085,21.6389776 L88.4032717,21.6389776 L88.4032717,16.8306709 L86.6908085,16.8306709 L86.6908085,21.6389776 Z M90.6426466,21.6389776 L92.399019,21.6389776 L92.399019,16.8306709 L90.6426466,16.8306709 L90.6426466,21.6389776 Z M86.6908085,14.7731629 L88.4032717,14.7731629 L88.4032717,10.3226837 L86.6908085,10.3226837 L86.6908085,14.7731629 Z M90.6426466,10.3226837 L90.6426466,14.7731629 L92.399019,14.7731629 L92.399019,10.3226837 L90.6426466,10.3226837 Z M95.9995826,6.20766773 L103.508075,6.20766773 L103.508075,7.90734824 C102.849435,10.1884984 102.146886,12.2683706 101.400428,14.1916933 C102.937254,16.428115 103.705667,18.2396166 103.727621,19.6485623 C103.727621,20.9904153 103.442211,21.9073482 102.893345,22.399361 C102.300569,22.9361022 101.115017,23.2044728 99.3586449,23.2044728 L98.6780506,20.85623 C99.4903729,20.9456869 100.170967,21.0127796 100.741788,21.0127796 C101.093063,20.9904153 101.334564,20.8785942 101.466292,20.6996805 C101.554111,20.5654952 101.59802,20.2076677 101.619974,19.6485623 C101.59802,18.2619808 100.763743,16.4504792 99.1171437,14.1916933 C99.8196927,12.5591054 100.500287,10.5910543 101.158927,8.26517572 L98.1730935,8.26517572 L98.1730935,25.9552716 L95.9995826,25.9552716 L95.9995826,6.20766773 Z M113.788841,7.63897764 L116.708811,7.63897764 L122.702432,23.6070288 L119.9581,23.6070288 L118.531047,19.6038339 L111.966605,19.6038339 L110.539552,23.6070288 L107.79522,23.6070288 L113.788841,7.63897764 Z M112.735018,17.456869 L117.762634,17.456869 L115.303713,10.456869 L115.215894,10.456869 L112.735018,17.456869 Z M127.033486,7.63897764 L129.602181,7.63897764 L129.602181,23.6070288 L127.033486,23.6070288 L127.033486,7.63897764 Z M134.262556,7.63897764 L147.106029,7.63897764 L147.106029,9.87539936 L141.96864,9.87539936 L141.96864,23.6070288 L139.399945,23.6070288 L139.399945,9.87539936 L134.262556,9.87539936 L134.262556,7.63897764 Z M151.766404,7.63897764 L154.313144,7.63897764 L154.313144,21.370607 L162.787641,21.370607 L162.787641,23.6070288 L151.766404,23.6070288 L151.766404,7.63897764 Z M176.251833,25.8658147 L173.749002,25.8658147 L173.22209,23.5846645 C173.990503,23.6741214 174.736962,23.7412141 175.461465,23.7412141 C175.878604,23.7412141 176.09815,23.4952077 176.09815,23.0255591 L176.09815,18.284345 C174.034413,18.4185304 171.816992,18.5527157 169.40198,18.6645367 L168.765295,16.629393 C169.489799,16.5623003 170.148438,16.428115 170.741214,16.2044728 C172.256085,15.5335463 173.946594,14.5271565 175.790785,13.1629393 C174.078322,13.2971246 172.256085,13.4089457 170.367985,13.5207668 L169.906937,11.485623 C170.455804,11.4185304 170.960761,11.284345 171.443763,11.0607029 C172.212176,10.6805112 173.156226,9.85303514 174.297868,8.55591054 C172.585405,8.60063898 170.829033,8.64536741 168.984842,8.64536741 L168.326202,6.63258786 C174.605234,6.63258786 179.940215,6.20766773 184.331146,5.38019169 L185.450834,7.32587859 C183.101685,7.81789137 180.335399,8.17571885 177.130019,8.39936102 C176.076196,9.65175719 174.956508,10.7252396 173.792911,11.5750799 C175.241919,11.485623 176.712881,11.3738019 178.161888,11.2619808 C179.062029,10.5015974 179.984124,9.67412141 180.950129,8.77955272 L183.057776,9.83067093 C179.654804,12.8051118 176.690926,15.0415335 174.188095,16.5175719 C177.0422,16.3162939 179.566986,16.0926518 181.718542,15.8242812 C181.257494,15.1980831 180.774492,14.571885 180.291489,13.9456869 L181.981998,12.8722045 C183.804234,15.0415335 185.209332,16.942492 186.175337,18.5750799 L184.353101,19.8498403 C183.957917,19.1341853 183.496869,18.4185304 183.013867,17.6805112 C181.608769,17.8370607 180.071943,17.971246 178.403389,18.1054313 L178.403389,23.6070288 C178.403389,25.1054313 177.678885,25.8658147 176.251833,25.8658147 Z M181.345313,19.0447284 C183.496869,20.6549521 185.319106,22.2428115 186.790068,23.8306709 L185.165423,25.485623 C183.914008,23.9648562 182.135681,22.3099042 179.830442,20.543131 L181.345313,19.0447284 Z M172.409768,19.201278 L174.012458,20.6549521 C172.541496,22.4664537 170.71926,24.0543131 168.523794,25.3961661 L167.096741,23.4952077 C169.204388,22.2651757 170.960761,20.8338658 172.409768,19.201278 Z M199.156526,20.341853 L199.156526,22.5559105 C197.158653,23.5846645 194.897323,24.4345048 192.350583,25.0607029 L192.065173,22.7348243 C194.765595,22.1309904 197.136698,21.3258786 199.156526,20.341853 Z M195.204688,5.1341853 L197.400154,6.00638978 C196.39024,8.60063898 195.358371,10.7028754 194.304547,12.3578275 C194.963187,12.2907348 195.621827,12.201278 196.280466,12.0894569 C196.631741,11.3738019 197.026925,10.5910543 197.444063,9.76357827 L199.485846,10.5686901 C197.773383,13.85623 196.34633,16.2939297 195.204688,17.8817891 C196.500013,17.5239617 197.817292,17.0319489 199.156526,16.428115 L199.156526,18.5750799 C196.741514,19.6038339 194.480185,20.2747604 192.350583,20.6102236 L191.735853,18.4632588 C192.152991,18.284345 192.504266,18.0607029 192.767722,17.7923323 C193.382452,17.1214058 194.172819,15.9361022 195.138824,14.2364217 C194.172819,14.370607 193.162905,14.5271565 192.152991,14.6837061 L191.58217,12.5367412 C191.933445,12.3801917 192.262764,12.0894569 192.57013,11.6421725 C193.580044,9.67412141 194.45823,7.50479233 195.204688,5.1341853 Z M199.771257,15.399361 L199.288254,13.341853 C199.485846,13.2747604 199.639529,13.2076677 199.727347,13.1629393 C200.342078,12.6709265 201.1544,11.485623 202.14236,9.58466454 L198.871116,9.58466454 L198.871116,7.37060703 L204.140233,7.37060703 C203.898732,6.69968051 203.635276,6.05111821 203.327911,5.46964856 L205.655104,5.06709265 C205.91856,5.73801917 206.182016,6.52076677 206.445472,7.37060703 L211.209632,7.37060703 L211.209632,9.58466454 L204.535417,9.58466454 C203.745049,11.1054313 203.0425,12.2683706 202.42777,13.1182109 C204.096324,12.9616613 205.742923,12.7380192 207.367568,12.4696486 L206.182016,10.7923323 L207.938389,9.67412141 C209.365441,11.5750799 210.463174,13.2300319 211.231587,14.6389776 L209.45326,15.913738 C209.189804,15.4217252 208.904394,14.9073482 208.597028,14.4153355 C205.896606,14.8178914 202.954682,15.1533546 199.771257,15.399361 Z M201.330037,15.9808307 L203.569412,15.9808307 C203.437684,18.8434505 203.108364,20.9233227 202.537543,22.2428115 C201.900858,23.6517572 200.847035,24.8817891 199.354118,25.9105431 L197.883156,24.0319489 C199.112617,23.2268371 199.968849,22.2875399 200.473806,21.2140575 C200.956808,20.1629393 201.242219,18.4185304 201.330037,15.9808307 Z M209.45326,25.5303514 L208.114026,25.5303514 C206.467427,25.5303514 205.655104,24.7923323 205.655104,23.3386581 L205.655104,15.7124601 L207.828615,15.7124601 L207.828615,22.8690096 C207.828615,23.2044728 207.938389,23.4057508 208.17989,23.4728435 L209.343487,23.4728435 C209.716716,23.428115 209.914308,23.115016 209.958217,22.5559105 C210.002126,21.9520767 210.046036,21.1246006 210.046036,20.0958466 L212,20.8115016 C212,22.9584665 211.824363,24.2555911 211.516998,24.7476038 C211.209632,25.1948882 210.507083,25.4408946 209.45326,25.5303514 Z" id="智邮AITL系统" fill-rule="nonzero"></path>
                    <path d="M60.8089056,30.1340426 L61.7585356,30.1340426 L64.5674413,36.9702128 L63.6777879,36.9702128 L62.9180839,35.0553191 L59.6393613,35.0553191 L58.8796573,36.9702128 L58,36.9702128 L60.8089056,30.1340426 Z M59.89926,34.3946809 L62.6581851,34.3946809 L61.3087109,30.9765957 L61.2687265,30.9765957 L59.89926,34.3946809 Z M67.4563157,31.8861702 C67.7362067,31.8861702 67.9761132,31.9244681 68.1660392,32.0010638 L68.1660392,32.7670213 C67.9061405,32.6904255 67.6462417,32.6617021 67.3963391,32.6617021 C66.9964949,32.6617021 66.6566273,32.8244681 66.3867324,33.1691489 C66.1068415,33.4946809 65.9768921,33.887234 65.9768921,34.3468085 L65.9768921,36.9702128 L65.1871998,36.9702128 L65.1871998,32.0202128 L65.9768921,32.0202128 L65.9768921,32.8819149 C66.1168376,32.5946809 66.2967675,32.3648936 66.5166818,32.2021277 C66.7865767,31.9914894 67.0964559,31.8861702 67.4563157,31.8861702 Z M70.2152408,30.4212766 L70.2152408,32.0202128 L71.4947423,32.0202128 L71.4947423,32.6617021 L70.2152408,32.6617021 L70.2152408,35.8117021 C70.2152408,35.993617 70.2452291,36.1276596 70.325198,36.2042553 C70.3951707,36.2808511 70.5251201,36.3287234 70.70505,36.3287234 L71.3647929,36.3287234 L71.3647929,36.9702128 L70.5850967,36.9702128 C70.1652603,36.9702128 69.855381,36.8648936 69.6754511,36.6542553 C69.5055173,36.462766 69.4255485,36.1851064 69.4255485,35.8117021 L69.4255485,32.6617021 L68.3859535,32.6617021 L68.3859535,32.0202128 L69.4255485,32.0202128 L69.4255485,30.737234 L70.2152408,30.4212766 Z M73.0441386,30.1531915 C73.2140724,30.1531915 73.3540179,30.2010638 73.4739712,30.3159574 C73.5939244,30.4117021 73.6539011,30.5457447 73.6539011,30.7180851 C73.6539011,30.8808511 73.5939244,31.0148936 73.4739712,31.1297872 C73.3540179,31.2351064 73.2140724,31.2925532 73.0441386,31.2925532 C72.8742049,31.2925532 72.7342594,31.2351064 72.6143061,31.1297872 C72.4943528,31.0148936 72.4443723,30.8808511 72.4443723,30.7180851 C72.4443723,30.5457447 72.4943528,30.4117021 72.6143061,30.3159574 C72.7342594,30.2010638 72.8742049,30.1531915 73.0441386,30.1531915 Z M72.6442944,32.0202128 L73.4439829,32.0202128 L73.4439829,36.9702128 L72.6442944,36.9702128 L72.6442944,32.0202128 Z M77.0125925,30.1340426 L78.0022069,30.1340426 L78.0022069,30.7946809 L77.1125536,30.7946809 C76.8926392,30.7946809 76.7227054,30.8425532 76.6227444,30.9574468 C76.5227833,31.062766 76.4728028,31.2351064 76.4728028,31.4744681 L76.4728028,32.0202128 L79.621576,32.0202128 L79.621576,36.9702128 L78.8318837,36.9702128 L78.8318837,32.6617021 L76.4728028,32.6617021 L76.4728028,36.9702128 L75.6731144,36.9702128 L75.6731144,32.6617021 L74.3736207,32.6617021 L74.3736207,32.0202128 L75.6731144,32.0202128 L75.6731144,31.4553191 C75.6731144,31.0340426 75.7830715,30.7180851 76.0029858,30.4882979 C76.2328963,30.2489362 76.5727639,30.1340426 77.0125925,30.1340426 Z M83.2501623,31.8861702 C83.889913,31.8861702 84.3997144,32.0297872 84.7895625,32.3170213 C85.1894067,32.6138298 85.4293133,33.0638298 85.5192782,33.6670213 L84.7295859,33.6670213 C84.6596131,33.2840426 84.4996755,32.9968085 84.2497728,32.8053191 C83.9898741,32.6138298 83.6600026,32.5276596 83.2501623,32.5276596 C82.750357,32.5276596 82.3505128,32.7095745 82.0606257,33.0734043 C81.7807348,33.4276596 81.6407893,33.906383 81.6407893,34.5095745 C81.6407893,35.112766 81.7707387,35.5914894 82.0506296,35.9361702 C82.3205245,36.2808511 82.7203687,36.462766 83.2401662,36.462766 C84.1198234,36.462766 84.6296248,36.0319149 84.7495781,35.1797872 L85.5492665,35.1797872 C85.4293133,35.8117021 85.1794106,36.3 84.7795664,36.6255319 C84.3897183,36.9414894 83.8799169,37.1042553 83.2401662,37.1042553 C82.4604699,37.1042553 81.8607036,36.8553191 81.4308711,36.3574468 C81.0210308,35.8882979 80.8211087,35.2755319 80.8211087,34.5191489 C80.8211087,33.762766 81.0210308,33.15 81.4308711,32.6712766 C81.8706997,32.1446809 82.4804622,31.8861702 83.2501623,31.8861702 Z M87.1486434,30.1531915 C87.3185772,30.1531915 87.4585227,30.2010638 87.5784759,30.3159574 C87.6984292,30.4117021 87.7584058,30.5457447 87.7584058,30.7180851 C87.7584058,30.8808511 87.6984292,31.0148936 87.5784759,31.1297872 C87.4585227,31.2351064 87.3185772,31.2925532 87.1486434,31.2925532 C86.9787096,31.2925532 86.8387641,31.2351064 86.7188109,31.1297872 C86.5988576,31.0148936 86.5488771,30.8808511 86.5488771,30.7180851 C86.5488771,30.5457447 86.5988576,30.4117021 86.7188109,30.3159574 C86.8387641,30.2010638 86.9787096,30.1531915 87.1486434,30.1531915 Z M86.7487992,32.0202128 L87.5484876,32.0202128 L87.5484876,36.9702128 L86.7487992,36.9702128 L86.7487992,32.0202128 Z M91.2970271,31.8861702 C92.0367389,31.8861702 92.5765286,32.0680851 92.9363884,32.4414894 C93.2362716,32.7670213 93.3962093,33.2170213 93.3962093,33.7914894 L93.3962093,36.9702128 L92.6465014,36.9702128 L92.6465014,36.137234 C92.4465793,36.4053191 92.1766844,36.6255319 91.856809,36.7978723 C91.476957,36.9989362 91.0471245,37.1042553 90.5673114,37.1042553 C90.047514,37.1042553 89.6376736,36.9797872 89.3277944,36.7308511 C89.007919,36.4723404 88.8479813,36.137234 88.8479813,35.7351064 C88.8479813,35.1702128 89.0778917,34.7489362 89.5577048,34.4617021 C89.9775412,34.193617 90.5773075,34.05 91.3570038,34.0404255 L92.5965208,34.0212766 L92.5965208,33.762766 C92.5965208,32.9297872 92.1466961,32.5180851 91.2470466,32.5180851 C90.8671946,32.5180851 90.5573153,32.5851064 90.3174088,32.7382979 C90.047514,32.8914894 89.8775802,33.1308511 89.7976113,33.4468085 L89.007919,33.3893617 C89.1178762,32.8723404 89.387771,32.4797872 89.8076074,32.2308511 C90.1874594,32.0010638 90.6772686,31.8861702 91.2970271,31.8861702 Z M92.5965208,34.5957447 L91.4069843,34.6148936 C90.2474361,34.6340426 89.6676619,34.9978723 89.6676619,35.7159574 C89.6676619,35.9457447 89.7576269,36.1276596 89.957549,36.2808511 C90.1574711,36.4244681 90.4173699,36.5010638 90.7372452,36.5010638 C91.2270544,36.5010638 91.6568869,36.3478723 92.0367389,36.0414894 C92.4065948,35.7446809 92.5965208,35.4 92.5965208,35.0170213 L92.5965208,34.5957447 Z M94.795664,30 L95.5853564,30 L95.5853564,36.9702128 L94.795664,36.9702128 L94.795664,30 Z M100.473452,30.1340426 L101.283136,30.1340426 L101.283136,36.9702128 L100.473452,36.9702128 L100.473452,30.1340426 Z M105.101649,31.8861702 C106.38115,31.8861702 107.030897,32.5659574 107.030897,33.9255319 L107.030897,36.9702128 L106.231209,36.9702128 L106.231209,33.9829787 C106.231209,33.0159574 105.771388,32.537234 104.871738,32.537234 C104.511878,32.537234 104.201999,32.6617021 103.9421,32.9106383 C103.66221,33.1787234 103.512268,33.5329787 103.48228,33.9829787 L103.48228,36.9702128 L102.682591,36.9702128 L102.682591,32.0202128 L103.48228,32.0202128 L103.48228,32.7478723 C103.66221,32.4702128 103.89212,32.2595745 104.172011,32.1159574 C104.451902,31.962766 104.761781,31.8861702 105.101649,31.8861702 Z M109.649877,30.4212766 L109.649877,32.0202128 L110.929378,32.0202128 L110.929378,32.6617021 L109.649877,32.6617021 L109.649877,35.8117021 C109.649877,35.993617 109.679865,36.1276596 109.759834,36.2042553 C109.829807,36.2808511 109.959756,36.3287234 110.139686,36.3287234 L110.799429,36.3287234 L110.799429,36.9702128 L110.019733,36.9702128 C109.599896,36.9702128 109.290017,36.8648936 109.110087,36.6542553 C108.940153,36.462766 108.860184,36.1851064 108.860184,35.8117021 L108.860184,32.6617021 L107.820589,32.6617021 L107.820589,32.0202128 L108.860184,32.0202128 L108.860184,30.737234 L109.649877,30.4212766 Z M113.948202,31.8861702 C114.777879,31.8861702 115.407633,32.1542553 115.82747,32.6904255 C116.207322,33.1691489 116.407244,33.8489362 116.427236,34.7106383 L112.348825,34.7106383 C112.38881,35.2659574 112.538751,35.6968085 112.818642,36.0031915 C113.098533,36.3095745 113.488381,36.462766 113.97819,36.462766 C114.398027,36.462766 114.74789,36.3574468 115.007789,36.156383 C115.227703,35.9840426 115.397637,35.7255319 115.527587,35.3808511 L116.327275,35.3808511 C116.207322,35.8595745 115.977411,36.2425532 115.627548,36.5489362 C115.197715,36.912766 114.647929,37.1042553 113.97819,37.1042553 C113.238479,37.1042553 112.638712,36.8648936 112.198884,36.4053191 C111.739063,35.9265957 111.519148,35.2946809 111.519148,34.4904255 C111.519148,33.762766 111.729067,33.15 112.168895,32.6617021 C112.608724,32.1446809 113.198494,31.8861702 113.948202,31.8861702 Z M113.968194,32.5276596 C113.508373,32.5276596 113.138517,32.6712766 112.858627,32.9585106 C112.578736,33.2457447 112.418798,33.6287234 112.368817,34.1170213 L115.597559,34.1170213 C115.497598,33.0542553 114.947813,32.5276596 113.968194,32.5276596 Z M117.526808,30 L118.3165,30 L118.3165,36.9702128 L117.526808,36.9702128 L117.526808,30 Z M119.875893,30 L120.665585,30 L120.665585,36.9702128 L119.875893,36.9702128 L119.875893,30 Z M122.724783,30.1531915 C122.894716,30.1531915 123.034662,30.2010638 123.154615,30.3159574 C123.274568,30.4117021 123.334545,30.5457447 123.334545,30.7180851 C123.334545,30.8808511 123.274568,31.0148936 123.154615,31.1297872 C123.034662,31.2351064 122.894716,31.2925532 122.724783,31.2925532 C122.554849,31.2925532 122.414903,31.2351064 122.29495,31.1297872 C122.174997,31.0148936 122.125016,30.8808511 122.125016,30.7180851 C122.125016,30.5457447 122.174997,30.4117021 122.29495,30.3159574 C122.414903,30.2010638 122.554849,30.1531915 122.724783,30.1531915 Z M122.324938,32.0202128 L123.124627,32.0202128 L123.124627,36.9702128 L122.324938,36.9702128 L122.324938,32.0202128 Z M126.753213,31.8861702 C127.532909,31.8861702 128.112683,32.2117021 128.492535,32.8723404 L128.492535,32.0202128 L129.292224,32.0202128 L129.292224,36.6255319 C129.292224,38.2053191 128.502531,39 126.933143,39 C126.233416,39 125.693626,38.8659574 125.333766,38.5978723 C124.96391,38.3297872 124.734,37.9276596 124.644035,37.3914894 L125.443723,37.3914894 C125.5037,37.7265957 125.653641,37.9755319 125.883552,38.1287234 C126.113462,38.2914894 126.463326,38.3776596 126.933143,38.3776596 C127.972738,38.3776596 128.492535,37.8223404 128.492535,36.7308511 L128.492535,35.8595745 C128.112683,36.5202128 127.532909,36.8553191 126.753213,36.8553191 C126.033493,36.8553191 125.463715,36.6159574 125.043879,36.1468085 C124.624043,35.687234 124.42412,35.1031915 124.42412,34.3851064 C124.42412,33.6574468 124.624043,33.0734043 125.043879,32.6138298 C125.463715,32.1255319 126.033493,31.8861702 126.753213,31.8861702 Z M126.873166,32.5180851 C126.353369,32.5180851 125.953525,32.6904255 125.663638,33.0542553 C125.383747,33.3797872 125.243801,33.8297872 125.243801,34.3851064 C125.243801,34.9021277 125.363754,35.3329787 125.613657,35.6585106 C125.893548,36.0223404 126.303388,36.2138298 126.86317,36.2138298 C127.382968,36.2138298 127.782812,36.0414894 128.082695,35.6968085 C128.362586,35.3617021 128.502531,34.9212766 128.502531,34.3851064 C128.502531,33.8297872 128.362586,33.3797872 128.082695,33.0542553 C127.782812,32.6904255 127.382968,32.5180851 126.873166,32.5180851 Z M132.660911,31.8861702 C133.490588,31.8861702 134.120343,32.1542553 134.540179,32.6904255 C134.920031,33.1691489 135.119953,33.8489362 135.139945,34.7106383 L131.061534,34.7106383 C131.101519,35.2659574 131.25146,35.6968085 131.531351,36.0031915 C131.811242,36.3095745 132.20109,36.462766 132.6909,36.462766 C133.110736,36.462766 133.4606,36.3574468 133.720499,36.156383 C133.940413,35.9840426 134.110347,35.7255319 134.240296,35.3808511 L135.039984,35.3808511 C134.920031,35.8595745 134.690121,36.2425532 134.340257,36.5489362 C133.910425,36.912766 133.360639,37.1042553 132.6909,37.1042553 C131.951188,37.1042553 131.351422,36.8648936 130.911593,36.4053191 C130.451772,35.9265957 130.231858,35.2946809 130.231858,34.4904255 C130.231858,33.762766 130.441776,33.15 130.881605,32.6617021 C131.321433,32.1446809 131.911203,31.8861702 132.660911,31.8861702 Z M132.680904,32.5276596 C132.221083,32.5276596 131.851227,32.6712766 131.571336,32.9585106 C131.291445,33.2457447 131.131507,33.6287234 131.081527,34.1170213 L134.310269,34.1170213 C134.210308,33.0542553 133.660522,32.5276596 132.680904,32.5276596 Z M138.498637,31.8861702 C139.778138,31.8861702 140.427885,32.5659574 140.427885,33.9255319 L140.427885,36.9702128 L139.628197,36.9702128 L139.628197,33.9829787 C139.628197,33.0159574 139.168376,32.537234 138.268726,32.537234 C137.908867,32.537234 137.598987,32.6617021 137.339089,32.9106383 C137.059198,33.1787234 136.909256,33.5329787 136.879268,33.9829787 L136.879268,36.9702128 L136.079579,36.9702128 L136.079579,32.0202128 L136.879268,32.0202128 L136.879268,32.7478723 C137.059198,32.4702128 137.289108,32.2595745 137.568999,32.1159574 C137.84889,31.962766 138.158769,31.8861702 138.498637,31.8861702 Z M143.896534,31.8861702 C144.536285,31.8861702 145.046086,32.0297872 145.435934,32.3170213 C145.835778,32.6138298 146.075685,33.0638298 146.16565,33.6670213 L145.375957,33.6670213 C145.305985,33.2840426 145.146047,32.9968085 144.896144,32.8053191 C144.636246,32.6138298 144.306374,32.5276596 143.896534,32.5276596 C143.396729,32.5276596 142.996884,32.7095745 142.706997,33.0734043 C142.427106,33.4276596 142.287161,33.906383 142.287161,34.5095745 C142.287161,35.112766 142.41711,35.5914894 142.697001,35.9361702 C142.966896,36.2808511 143.36674,36.462766 143.886538,36.462766 C144.766195,36.462766 145.275996,36.0319149 145.39595,35.1797872 L146.195638,35.1797872 C146.075685,35.8117021 145.825782,36.3 145.425938,36.6255319 C145.03609,36.9414894 144.526288,37.1042553 143.886538,37.1042553 C143.106841,37.1042553 142.507075,36.8553191 142.077243,36.3574468 C141.667402,35.8882979 141.46748,35.2755319 141.46748,34.5191489 C141.46748,33.762766 141.667402,33.15 142.077243,32.6712766 C142.517071,32.1446809 143.126834,31.8861702 143.896534,31.8861702 Z M149.264442,31.8861702 C150.094119,31.8861702 150.723874,32.1542553 151.14371,32.6904255 C151.523562,33.1691489 151.723484,33.8489362 151.743477,34.7106383 L147.665066,34.7106383 C147.70505,35.2659574 147.854992,35.6968085 148.134883,36.0031915 C148.414773,36.3095745 148.804622,36.462766 149.294431,36.462766 C149.714267,36.462766 150.064131,36.3574468 150.32403,36.156383 C150.543944,35.9840426 150.713878,35.7255319 150.843827,35.3808511 L151.643516,35.3808511 C151.523562,35.8595745 151.293652,36.2425532 150.943788,36.5489362 C150.513956,36.912766 149.96417,37.1042553 149.294431,37.1042553 C148.554719,37.1042553 147.954953,36.8648936 147.515124,36.4053191 C147.055303,35.9265957 146.835389,35.2946809 146.835389,34.4904255 C146.835389,33.762766 147.045307,33.15 147.485136,32.6617021 C147.924964,32.1446809 148.514735,31.8861702 149.264442,31.8861702 Z M149.284435,32.5276596 C148.824614,32.5276596 148.454758,32.6712766 148.174867,32.9585106 C147.894976,33.2457447 147.735038,33.6287234 147.685058,34.1170213 L150.9138,34.1170213 C150.813839,33.0542553 150.264053,32.5276596 149.284435,32.5276596 Z M155.561989,30.1340426 L161.409711,30.1340426 L161.409711,30.8138298 L158.890692,30.8138298 L158.890692,36.9702128 L158.081007,36.9702128 L158.081007,30.8138298 L155.561989,30.8138298 L155.561989,30.1340426 Z M164.468519,31.8861702 C164.74841,31.8861702 164.988316,31.9244681 165.178242,32.0010638 L165.178242,32.7670213 C164.918344,32.6904255 164.658445,32.6617021 164.408542,32.6617021 C164.008698,32.6617021 163.66883,32.8244681 163.398935,33.1691489 C163.119045,33.4946809 162.989095,33.887234 162.989095,34.3468085 L162.989095,36.9702128 L162.199403,36.9702128 L162.199403,32.0202128 L162.989095,32.0202128 L162.989095,32.8819149 C163.129041,32.5946809 163.308971,32.3648936 163.528885,32.2021277 C163.79878,31.9914894 164.108659,31.8861702 164.468519,31.8861702 Z M168.097105,31.8861702 C168.836817,31.8861702 169.376607,32.0680851 169.736466,32.4414894 C170.036349,32.7670213 170.196287,33.2170213 170.196287,33.7914894 L170.196287,36.9702128 L169.446579,36.9702128 L169.446579,36.137234 C169.246657,36.4053191 168.976762,36.6255319 168.656887,36.7978723 C168.277035,36.9989362 167.847202,37.1042553 167.367389,37.1042553 C166.847592,37.1042553 166.437752,36.9797872 166.127872,36.7308511 C165.807997,36.4723404 165.648059,36.137234 165.648059,35.7351064 C165.648059,35.1702128 165.87797,34.7489362 166.357783,34.4617021 C166.777619,34.193617 167.377385,34.05 168.157082,34.0404255 L169.396599,34.0212766 L169.396599,33.762766 C169.396599,32.9297872 168.946774,32.5180851 168.047124,32.5180851 C167.667272,32.5180851 167.357393,32.5851064 167.117487,32.7382979 C166.847592,32.8914894 166.677658,33.1308511 166.597689,33.4468085 L165.807997,33.3893617 C165.917954,32.8723404 166.187849,32.4797872 166.607685,32.2308511 C166.987537,32.0010638 167.477346,31.8861702 168.097105,31.8861702 Z M169.396599,34.5957447 L168.207062,34.6148936 C167.047514,34.6340426 166.46774,34.9978723 166.46774,35.7159574 C166.46774,35.9457447 166.557705,36.1276596 166.757627,36.2808511 C166.957549,36.4244681 167.217448,36.5010638 167.537323,36.5010638 C168.027132,36.5010638 168.456965,36.3478723 168.836817,36.0414894 C169.206673,35.7446809 169.396599,35.4 169.396599,35.0170213 L169.396599,34.5957447 Z M173.504998,30.1340426 L174.494612,30.1340426 L174.494612,30.7946809 L173.604959,30.7946809 C173.385045,30.7946809 173.215111,30.8425532 173.11515,30.9574468 C173.015189,31.062766 172.965208,31.2351064 172.965208,31.4744681 L172.965208,32.0202128 L175.294301,32.0202128 L175.294301,31.4553191 C175.294301,31.043617 175.404258,30.7276596 175.624172,30.4978723 C175.844087,30.2489362 176.183954,30.1340426 176.633779,30.1340426 L177.623393,30.1340426 L177.623393,30.7946809 L176.723744,30.7946809 C176.50383,30.7946809 176.343892,30.8425532 176.243931,30.9574468 C176.133974,31.062766 176.083993,31.2351064 176.083993,31.4744681 L176.083993,32.0202128 L179.242763,32.0202128 L179.242763,36.9702128 L178.443074,36.9702128 L178.443074,32.6617021 L176.083993,32.6617021 L176.083993,36.9702128 L175.294301,36.9702128 L175.294301,32.6617021 L172.965208,32.6617021 L172.965208,36.9702128 L172.16552,36.9702128 L172.16552,32.6617021 L170.866026,32.6617021 L170.866026,32.0202128 L172.16552,32.0202128 L172.16552,31.4553191 C172.16552,31.0340426 172.275477,30.7180851 172.495391,30.4882979 C172.725302,30.2489362 173.065169,30.1340426 173.504998,30.1340426 Z M182.871349,31.8861702 C183.5111,31.8861702 184.020901,32.0297872 184.410749,32.3170213 C184.810593,32.6138298 185.0505,33.0638298 185.140465,33.6670213 L184.350772,33.6670213 C184.2808,33.2840426 184.120862,32.9968085 183.870959,32.8053191 C183.611061,32.6138298 183.281189,32.5276596 182.871349,32.5276596 C182.371544,32.5276596 181.971699,32.7095745 181.681812,33.0734043 C181.401921,33.4276596 181.261976,33.906383 181.261976,34.5095745 C181.261976,35.112766 181.391925,35.5914894 181.671816,35.9361702 C181.941711,36.2808511 182.341555,36.462766 182.861353,36.462766 C183.74101,36.462766 184.250811,36.0319149 184.370765,35.1797872 L185.170453,35.1797872 C185.0505,35.8117021 184.800597,36.3 184.400753,36.6255319 C184.010905,36.9414894 183.501103,37.1042553 182.861353,37.1042553 C182.081656,37.1042553 181.48189,36.8553191 181.052058,36.3574468 C180.642217,35.8882979 180.442295,35.2755319 180.442295,34.5191489 C180.442295,33.762766 180.642217,33.15 181.052058,32.6712766 C181.491886,32.1446809 182.101649,31.8861702 182.871349,31.8861702 Z M189.538751,30.1340426 L190.348436,30.1340426 L190.348436,36.2904255 L194.476827,36.2904255 L194.476827,36.9702128 L189.538751,36.9702128 L189.538751,30.1340426 Z M195.976243,30.1531915 C196.146177,30.1531915 196.286122,30.2010638 196.406076,30.3159574 C196.526029,30.4117021 196.586005,30.5457447 196.586005,30.7180851 C196.586005,30.8808511 196.526029,31.0148936 196.406076,31.1297872 C196.286122,31.2351064 196.146177,31.2925532 195.976243,31.2925532 C195.806309,31.2925532 195.666364,31.2351064 195.54641,31.1297872 C195.426457,31.0148936 195.376477,30.8808511 195.376477,30.7180851 C195.376477,30.5457447 195.426457,30.4117021 195.54641,30.3159574 C195.666364,30.2010638 195.806309,30.1531915 195.976243,30.1531915 Z M195.576399,32.0202128 L196.376087,32.0202128 L196.376087,36.9702128 L195.576399,36.9702128 L195.576399,32.0202128 Z M200.004674,31.8861702 C200.78437,31.8861702 201.364144,32.2117021 201.743996,32.8723404 L201.743996,32.0202128 L202.543684,32.0202128 L202.543684,36.6255319 C202.543684,38.2053191 201.753992,39 200.184603,39 C199.484876,39 198.945086,38.8659574 198.585227,38.5978723 C198.215371,38.3297872 197.98546,37.9276596 197.895495,37.3914894 L198.695184,37.3914894 C198.75516,37.7265957 198.905102,37.9755319 199.135012,38.1287234 C199.364923,38.2914894 199.714786,38.3776596 200.184603,38.3776596 C201.224198,38.3776596 201.743996,37.8223404 201.743996,36.7308511 L201.743996,35.8595745 C201.364144,36.5202128 200.78437,36.8553191 200.004674,36.8553191 C199.284954,36.8553191 198.715176,36.6159574 198.295339,36.1468085 C197.875503,35.687234 197.675581,35.1031915 197.675581,34.3851064 C197.675581,33.6574468 197.875503,33.0734043 198.295339,32.6138298 C198.715176,32.1255319 199.284954,31.8861702 200.004674,31.8861702 Z M200.124627,32.5180851 C199.604829,32.5180851 199.204985,32.6904255 198.915098,33.0542553 C198.635207,33.3797872 198.495262,33.8297872 198.495262,34.3851064 C198.495262,34.9021277 198.615215,35.3329787 198.865117,35.6585106 C199.145008,36.0223404 199.554849,36.2138298 200.114631,36.2138298 C200.634428,36.2138298 201.034272,36.0414894 201.334156,35.6968085 C201.614046,35.3617021 201.753992,34.9212766 201.753992,34.3851064 C201.753992,33.8297872 201.614046,33.3797872 201.334156,33.0542553 C201.034272,32.6904255 200.634428,32.5180851 200.124627,32.5180851 Z M203.783201,30 L204.58289,30 L204.58289,32.8340426 C204.76282,32.5180851 205.002726,32.2787234 205.302609,32.1159574 C205.5825,31.962766 205.89238,31.8861702 206.242243,31.8861702 C206.84201,31.8861702 207.311827,32.0489362 207.631702,32.393617 C207.951577,32.7287234 208.111515,33.2170213 208.111515,33.8489362 L208.111515,36.9702128 L207.311827,36.9702128 L207.311827,33.9638298 C207.311827,33.5042553 207.191873,33.15 206.971959,32.9010638 C206.732052,32.6521277 206.402181,32.5276596 205.972348,32.5276596 C205.572504,32.5276596 205.242633,32.6808511 204.982734,32.987234 C204.712839,33.293617 204.58289,33.6861702 204.58289,34.1457447 L204.58289,36.9702128 L203.783201,36.9702128 L203.783201,30 Z M210.720499,30.4212766 L210.720499,32.0202128 L212,32.0202128 L212,32.6617021 L210.720499,32.6617021 L210.720499,35.8117021 C210.720499,35.993617 210.750487,36.1276596 210.830456,36.2042553 C210.900428,36.2808511 211.030378,36.3287234 211.210308,36.3287234 L211.870051,36.3287234 L211.870051,36.9702128 L211.090354,36.9702128 C210.670518,36.9702128 210.360639,36.8648936 210.180709,36.6542553 C210.010775,36.462766 209.930806,36.1851064 209.930806,35.8117021 L209.930806,32.6617021 L208.891211,32.6617021 L208.891211,32.0202128 L209.930806,32.0202128 L209.930806,30.737234 L210.720499,30.4212766 Z" id="ArtifcialIntelligenceTrafcLight" fill-rule="nonzero"></path>
                </g>
            </g>
        </g>
    </g>
</svg>