<?xml version="1.0" encoding="UTF-8"?>
<svg width="25px" height="24px" viewBox="0 0 25 24" version="1.1" xmlns="http://www.w3.org/2000/svg" xmlns:xlink="http://www.w3.org/1999/xlink">
    <!-- Generator: Sketch 53.1 (72631) - https://sketchapp.com -->
    <title>用户</title>
    <desc>Created with Sketch.</desc>
    <g id="Page-1" stroke="none" stroke-width="1" fill="none" fill-rule="evenodd">
        <g id="02中控台-配置1-路口信息" transform="translate(-1262.000000, -18.000000)" fill="#999999" fill-rule="nonzero">
            <g id="用户" transform="translate(1262.000000, 18.000000)">
                <path d="M12.4344328,24 C5.56566861,24 4.71844785e-16,18.6284112 4.71844785e-16,12 C4.71844785e-16,5.37304688 5.56566861,0 12.4344328,0 C19.3016861,0 24.8695652,5.37304688 24.8695652,12 C24.8695652,18.6284112 19.3016861,24 12.4344328,24 L12.4344328,24 Z M15.6721896,16.1781433 L16.1722339,15.7595329 C16.1722339,15.7595329 16.2982752,14.664081 16.5158001,14.2665882 C17.0029024,13.3746324 17.5159732,11.8765683 17.5159732,11.8765683 C17.5159732,11.8765683 18.0161329,11.5294064 18.0161329,10.9211497 C18.0161329,10.3136351 17.5159732,9.96427111 17.5159732,9.96427111 C17.5159732,9.96427111 17.7046173,8.27223715 17.7046173,7.09657416 C17.7046173,4.62706643 16.0814421,3.27272727 13.1633939,3.27272727 C10.2483967,3.27272727 8.11977303,4.42360258 8.11977303,7.09657416 C8.11977303,8.27222908 8.5106939,9.96427111 8.5106939,9.96427111 C8.5106939,9.96427111 8.0090086,10.3136082 8.0090086,10.9211497 C8.0090086,11.5294064 8.5106939,11.8765683 8.5106939,11.8765683 C8.5106939,11.8765683 9.09400575,13.6108938 9.51086698,14.2665882 C9.75436042,14.6494596 9.85512559,15.7595329 9.85512559,15.7595329 L10.3552853,16.1781433 C10.3552853,16.1781433 10.5919477,18.6024422 9.85512559,19.0458671 C9.18935121,19.4462504 6.34388866,19.9750192 5.65217391,20.3615554 C5.69408212,20.40313 8.73667281,22.9090909 13.0174793,22.9090909 C17.2984548,22.9090909 20.3478261,20.3936565 20.3478261,20.3469608 C19.6087567,19.9626025 16.8296368,19.4411283 16.1722334,19.0458376 C15.4346924,18.6024207 15.6721891,16.1781406 15.6721891,16.1781406 L15.6721891,16.1781406 L15.6721896,16.1781433 Z" id="形状"></path>
            </g>
        </g>
    </g>
</svg>