<?xml version="1.0" encoding="UTF-8"?>
<svg width="19px" height="14px" viewBox="0 0 19 14" version="1.1" xmlns="http://www.w3.org/2000/svg" xmlns:xlink="http://www.w3.org/1999/xlink">
    <!-- Generator: Sketch 53.1 (72631) - https://sketchapp.com -->
    <title>摄像头-未关联</title>
    <desc>Created with Sketch.</desc>
    <g id="Page-2" stroke="none" stroke-width="1" fill="none" fill-rule="evenodd">
        <g id="信号灯" transform="translate(-14.000000, -14.000000)">
            <g id="摄像头-未关联" transform="translate(14.000000, 14.000000)">
                <rect id="矩形" fill="#999999" x="0" y="0" width="19" height="14" rx="3"></rect>
                <g id="摄像头" transform="translate(3.000000, 3.000000)" fill="#BFBFBF" fill-rule="nonzero">
                    <path d="M7.87073759,3.44668771e-06 L1.12926241,3.44668771e-06 C1.12926241,3.44668771e-06 0,0 0,1.13317901 L0,6.86682444 C0,8 1.12926241,8 1.12926241,8 L7.87073759,8 C7.87073759,8 9,8 9,6.86682444 L9,1.167531 C9,0 7.87073759,0 7.87073759,0 L7.87073759,3.44668771e-06 Z M12.8195004,0.022683977 C12.7110003,-0.0118502854 12.6025006,-0.0118502854 12.5300005,0.0572182393 L10.1085002,1.8534661 C10.0360001,1.92253463 10,1.99160361 10,2.06067122 L10,4.92747849 C10,4.99654701 10.0360001,5.1001498 10.1085002,5.13468361 L12.5300005,6.93093147 L12.5300005,6.93093148 C12.5791271,6.97402399 12.6435999,6.9986264 12.7110005,7 C12.7470006,7 12.7830006,7 12.8555003,6.96546574 C12.9640004,6.93093148 13,6.82732823 13,6.72372567 L13,0.264422679 L13,0.264424988 C12.9994434,0.15668236 12.9276066,0.0604715848 12.8195017,0.0226837844 L12.8195004,0.022683977 Z" id="形状"></path>
                </g>
            </g>
        </g>
    </g>
</svg>