<?xml version="1.0" encoding="UTF-8"?>
<svg width="20px" height="70px" viewBox="0 0 20 70" version="1.1" xmlns="http://www.w3.org/2000/svg" xmlns:xlink="http://www.w3.org/1999/xlink">
    <!-- Generator: Sketch 53.1 (72631) - https://sketchapp.com -->
    <title>人行道-3</title>
    <desc>Created with Sketch.</desc>
    <g id="Page-2" stroke="none" stroke-width="1" fill="none" fill-rule="evenodd">
        <g id="路口示意图-图标" transform="translate(-308.000000, -110.000000)" fill="#999999" fill-rule="nonzero">
            <path d="M308,110 L328,110 L328,113.733333 L308,113.733333 L308,110 Z M308,117.466667 L328,117.466667 L328,121.2 L308,121.2 L308,117.466667 Z M308,124.933333 L328,124.933333 L328,128.666667 L308,128.666667 L308,124.933333 Z M308,131.466667 L328,131.466667 L328,135.2 L308,135.2 L308,131.466667 Z M308,138.933333 L328,138.933333 L328,142.666667 L308,142.666667 L308,138.933333 Z M308,147.333333 L328,147.333333 L328,151.066667 L308,151.066667 L308,147.333333 Z M308,154.8 L328,154.8 L328,158.533333 L308,158.533333 L308,154.8 Z M308,161.333333 L328,161.333333 L328,165.066667 L308,165.066667 L308,161.333333 Z M308,168.8 L328,168.8 L328,172.533333 L308,172.533333 L308,168.8 Z M308,176.266667 L328,176.266667 L328,180 L308,180 L308,176.266667 Z" id="人行道-3"></path>
        </g>
    </g>
</svg>