<?xml version="1.0" encoding="UTF-8"?>
<svg width="20px" height="70px" viewBox="0 0 20 70" version="1.1" xmlns="http://www.w3.org/2000/svg" xmlns:xlink="http://www.w3.org/1999/xlink">
    <!-- Generator: Sketch 53.1 (72631) - https://sketchapp.com -->
    <title>人行道-1</title>
    <desc>Created with Sketch.</desc>
    <g id="Page-2" stroke="none" stroke-width="1" fill="none" fill-rule="evenodd">
        <g id="路口示意图-图标" transform="translate(-124.000000, -12.000000)" fill="#F5F5F5" fill-rule="nonzero">
            <path d="M124,12 L144,12 L144,15.7333333 L124,15.7333333 L124,12 Z M124,19.4666667 L144,19.4666667 L144,23.2 L124,23.2 L124,19.4666667 Z M124,26.9333333 L144,26.9333333 L144,30.6666667 L124,30.6666667 L124,26.9333333 Z M124,33.4666667 L144,33.4666667 L144,37.2 L124,37.2 L124,33.4666667 Z M124,40.9333333 L144,40.9333333 L144,44.6666667 L124,44.6666667 L124,40.9333333 Z M124,49.3333333 L144,49.3333333 L144,53.0666667 L124,53.0666667 L124,49.3333333 Z M124,56.8 L144,56.8 L144,60.5333333 L124,60.5333333 L124,56.8 Z M124,63.3333333 L144,63.3333333 L144,67.0666667 L124,67.0666667 L124,63.3333333 Z M124,70.8 L144,70.8 L144,74.5333333 L124,74.5333333 L124,70.8 Z M124,78.2666667 L144,78.2666667 L144,82 L124,82 L124,78.2666667 Z" id="人行道-1"></path>
        </g>
    </g>
</svg>