<?xml version="1.0" encoding="UTF-8"?>
<svg width="20px" height="70px" viewBox="0 0 20 70" version="1.1" xmlns="http://www.w3.org/2000/svg" xmlns:xlink="http://www.w3.org/1999/xlink">
    <!-- Generator: Sketch 53.1 (72631) - https://sketchapp.com -->
    <title>人行道-2</title>
    <desc>Created with Sketch.</desc>
    <g id="Page-2" stroke="none" stroke-width="1" fill="none" fill-rule="evenodd">
        <g id="路口示意图-图标" transform="translate(-124.000000, -110.000000)" fill="#FF6600" fill-rule="nonzero">
            <path d="M124,110 L144,110 L144,113.733333 L124,113.733333 L124,110 Z M124,117.466667 L144,117.466667 L144,121.2 L124,121.2 L124,117.466667 Z M124,124.933333 L144,124.933333 L144,128.666667 L124,128.666667 L124,124.933333 Z M124,131.466667 L144,131.466667 L144,135.2 L124,135.2 L124,131.466667 Z M124,138.933333 L144,138.933333 L144,142.666667 L124,142.666667 L124,138.933333 Z M124,147.333333 L144,147.333333 L144,151.066667 L124,151.066667 L124,147.333333 Z M124,154.8 L144,154.8 L144,158.533333 L124,158.533333 L124,154.8 Z M124,161.333333 L144,161.333333 L144,165.066667 L124,165.066667 L124,161.333333 Z M124,168.8 L144,168.8 L144,172.533333 L124,172.533333 L124,168.8 Z M124,176.266667 L144,176.266667 L144,180 L124,180 L124,176.266667 Z" id="人行道-2"></path>
        </g>
    </g>
</svg>