<?xml version="1.0" encoding="UTF-8"?>
<svg width="14px" height="9px" viewBox="0 0 14 9" version="1.1" xmlns="http://www.w3.org/2000/svg" xmlns:xlink="http://www.w3.org/1999/xlink">
    <!-- Generator: Sketch 53.1 (72631) - https://sketchapp.com -->
    <title>相位图-人行道-1</title>
    <desc>Created with Sketch.</desc>
    <g id="Page-2" stroke="none" stroke-width="1" fill="none" fill-rule="evenodd">
        <g id="相位图" transform="translate(-73.000000, -43.000000)" fill="#00D142" fill-rule="nonzero">
            <path d="M73.5600002,46.5274431 C73.2488883,46.5274431 73,46.311321 73,46.0025725 C73,45.693824 73.2488883,45.4468264 73.5600002,45.4468264 L84.9466623,45.4468264 L83.4222177,43.9339625 C83.2044397,43.7178388 83.2044397,43.3782164 83.4222177,43.1620927 C83.6399957,42.9459691 83.9822179,42.9459691 84.1999959,43.1620927 L86.5022203,45.4159494 C86.7822204,45.4468249 86.9999984,45.6938225 86.9999984,45.9716955 C86.9999984,46.280444 86.7511102,46.5274416 86.4399982,46.5274416 L73.5599908,46.5274416 Z M86.4399998,48.3490587 C86.7511117,48.3490587 87,48.5960563 87,48.9048048 L87,48.9356796 C87,49.2444282 86.7511117,49.4914257 86.4399998,49.4914257 L75.0533377,49.4914257 L76.5777823,51.0351636 C76.7955603,51.2512873 76.7955603,51.6217836 76.5777823,51.8379073 C76.3600043,52.0540309 76.0177821,52.0540309 75.8000041,51.8379073 L73.4666647,49.4605518 C73.2488867,49.3988024 73.0622205,49.1826788 73.0622205,48.9356812 L73.0622205,48.9048063 C73.0622205,48.5960578 73.3111088,48.3490603 73.6222207,48.3490603 L86.4399982,48.3490603 Z" id="相位图-人行道-1"></path>
        </g>
    </g>
</svg>